<?xml version="1.0" encoding="utf-8"?>
<!-- Generator: Adobe Illustrator 27.5.0, SVG Export Plug-In . SVG Version: 6.00 Build 0)  -->
<svg version="1.1" id="Layer_1" xmlns="http://www.w3.org/2000/svg" xmlns:xlink="http://www.w3.org/1999/xlink" x="0px" y="0px"
	 viewBox="0 0 598.11 116" style="enable-background:new 0 0 598.11 116;" xml:space="preserve">
<style type="text/css">
	.st0{fill:#CC1725;}
	.st1{clip-path:url(#SVGID_00000172432455355142431110000012373721457728954537_);fill:#FFFFFF;}
	.st2{fill:#00448B;}
</style>
<g>
	<rect x="13.16" y="63.79" class="st0" width="571.78" height="36.88"/>
</g>
<g>
	<defs>
		<rect id="SVGID_1_" x="13.16" y="63.79" width="571.78" height="36.88"/>
	</defs>
	<clipPath id="SVGID_00000162347045681262502050000006383856605070401211_">
		<use xlink:href="#SVGID_1_"  style="overflow:visible;"/>
	</clipPath>
	<path style="clip-path:url(#SVGID_00000162347045681262502050000006383856605070401211_);fill:#FFFFFF;" d="M500.83,83.21
		c0.38,0,0.86-0.16,1.44-0.47c1.66-0.89,2.69-2.63,3.1-5.22l0.72-4.54h-4.23l-0.69,4.57c-0.1,0.7-0.26,1.31-0.5,1.84
		c-0.34,0.79-0.78,1.19-1.33,1.19c-0.77-1.2-1.69-2.5-2.77-3.89c-0.6-0.77-1.61-2-3.02-3.71h-5.36l3.56,4.14
		c0.7,0.82,1.14,1.34,1.33,1.58c0.26,0.36,0.48,0.7,0.65,1.01c-2.71,0.96-4.23,2.98-4.54,6.05l-0.61,6.12h4.23l0.59-5.87
		c0.07-0.74,0.25-1.49,0.54-2.23c0.39-1.01,0.88-1.55,1.48-1.62c1.73,2.16,3.8,5.4,6.23,9.72h4.9
		C504.73,88.79,502.83,85.89,500.83,83.21 M484.63,79.35c0-4.25-2.38-6.37-7.13-6.37h-6.62v3.6h6.37c1.15,0,1.95,0.22,2.39,0.65
		c0.44,0.43,0.67,1.22,0.67,2.38v12.28h4.32V79.35z M466.35,72.98h-8.42v3.6h4.46l0.36,5.29v0.36c0,1.58-0.58,2.96-1.75,4.14
		c-1.17,1.18-2.54,1.76-4.12,1.76v4.03h0.14c1.78,0,3.13-0.5,4.07-1.51c0.58-0.62,1.26-1.93,2.05-3.92h0.14l0.43,5.15h3.82
		L466.35,72.98z M452.92,72.98h-7.56v3.6h3.24v15.3h4.32V72.98z M441.58,72.98h-7.56v3.6h3.24v21.06h4.32V72.98z M404.68,91.88H409
		V80.83h-4.32V91.88z M421.2,72.98h-16.52v3.6h12.2v15.3h4.32V72.98z M396.07,72.98l-0.65,6.66c-0.22,2.3-0.37,3.73-0.47,4.28
		c-0.34,2.11-0.78,3.42-1.33,3.92c-0.31,0.29-0.73,0.43-1.26,0.43l-0.79,0l-3.7-15.3h-4.42l3.89,15.3h-3.42v3.6h8.28
		c3.12,0,5.29-1.43,6.52-4.28c0.36-0.82,0.62-1.97,0.79-3.46c0.05-0.48,0.18-2.05,0.4-4.72l0.5-6.44H396.07z M369.11,88.28h-1.94
		l-0.94-11.7h9.36C375.59,84.38,373.43,88.28,369.11,88.28 M361.62,72.98l1.62,18.9h5.83c5.81,0,9.26-3.5,10.37-10.51
		c0.31-1.97,0.47-4.76,0.47-8.39H361.62z M344.45,80.83h-4.32v16.81h4.32V80.83z M339.81,72.98v3.6h13.33l-5.18,15.3h4.34l6.44-18.9
		H339.81z M335.09,72.98h-7.56v3.6h3.24v6.59h4.32V72.98z M311.37,88.28v-11.7h5.18c1.18,0,1.99,0.21,2.43,0.63
		c0.44,0.42,0.67,1.22,0.67,2.39v8.68H311.37z M323.97,79.32c0-4.22-2.38-6.34-7.13-6.34h-9.79v18.9h16.92V79.32z M276.49,91.88
		h4.32V80.83h-4.32V91.88z M293.01,72.98h-16.52v3.6h12.2v15.3h4.32V72.98z M270.66,72.98h-8.42v3.6h4.46l0.36,5.29v0.36
		c0,1.58-0.58,2.96-1.75,4.14c-1.16,1.18-2.54,1.76-4.12,1.76v4.03h0.14c1.78,0,3.13-0.5,4.07-1.51c0.58-0.62,1.26-1.93,2.05-3.92
		h0.14l0.43,5.15h3.82L270.66,72.98z M258.31,72.98h-15.62v3.6h8.68v15.3h4.32v-15.3h2.63V72.98z M238.98,72.98h-7.56v3.6h3.24v15.3
		h4.32V72.98z M218.24,72.98v-5.29h-4.32v8.89h9.89l-6.24,15.3h4.64l7.38-18.9H218.24z M202.4,88.28h-2.66v-15.3h-13.18v3.6h8.86
		v11.7h-8.86v3.6h15.84V88.28z M182.57,72.98h-7.56v3.6h3.24v6.59h4.32V72.98z M167.92,72.98l-0.9,6.98
		c-0.72,5.54-3.19,8.32-7.42,8.32h-3.96l-0.46-4.07l1.01,0c1.54,0,2.88-0.43,4-1.29c1.13-0.86,1.79-2.04,1.99-3.53l0.88-6.41h-4.17
		l-0.65,5.65c-0.22,1.94-0.96,2.92-2.24,2.92l-1.19,0l-0.94-8.57h-4.21l2.3,18.9h8.46c3.24,0,5.8-1.24,7.67-3.71
		c1.54-2.04,2.53-4.79,2.99-8.24l0.9-6.95H167.92z M145.38,79.35c0-4.25-2.38-6.37-7.13-6.37h-6.62v3.6H138
		c1.15,0,1.95,0.22,2.39,0.65c0.44,0.43,0.67,1.22,0.67,2.38v12.28h4.32V79.35z M123.42,83.21c0.38,0,0.86-0.16,1.44-0.47
		c1.66-0.89,2.69-2.63,3.1-5.22l0.72-4.54h-4.23l-0.69,4.57c-0.1,0.7-0.26,1.31-0.5,1.84c-0.34,0.79-0.78,1.19-1.33,1.19
		c-0.77-1.2-1.69-2.5-2.77-3.89c-0.6-0.77-1.61-2-3.02-3.71h-5.35l3.56,4.14c0.7,0.82,1.14,1.34,1.33,1.58
		c0.26,0.36,0.48,0.7,0.65,1.01c-2.71,0.96-4.22,2.98-4.54,6.05l-0.61,6.12h4.23l0.59-5.87c0.07-0.74,0.25-1.49,0.54-2.23
		c0.38-1.01,0.88-1.55,1.48-1.62c1.73,2.16,3.81,5.4,6.23,9.72h4.9C127.32,88.79,125.41,85.89,123.42,83.21 M97.64,72.98v-5.29
		h-4.32v8.89h9.89l-6.24,15.3h4.64l7.38-18.9H97.64z"/>
</g>
<g>
	<path class="st2" d="M584.84,49.69l-8.78-12.04l4.88-3.01c1.7-1.06,2.56-2.69,2.56-4.88V17h-13.38v12.38L561.16,17h-14.11
		c-0.34,0-0.51,0.2-0.51,0.6c0,0.13,0.03,0.25,0.09,0.34l7.92,10.76l-4.6,2.78c-1.67,1.02-2.5,2.52-2.5,4.49v14.65h13.32v-13.2
		l9.54,13.2h14.14c0.34,0,0.51-0.19,0.51-0.57C584.96,49.93,584.92,49.8,584.84,49.69 M540.8,17h-12.78v20.08h12.78V17z M520.87,17
		h-23.48v11.7h11.16v4.06c0,0.61-0.25,1.16-0.74,1.65c-0.95,0.91-2.53,1.82-4.74,2.73c-2.44,1-4.55,1.51-6.33,1.51v12.55
		c0.66,0.25,1.28,0.37,1.85,0.37c3.96,0,7.12-2.31,9.48-6.93c0.17-0.34,0.47-0.51,0.91-0.51c0.3,0,0.47,0.23,0.51,0.68
		c0.21,2.59,0.35,4.53,0.43,5.82h10.96V17z M490,17h-12.84v33.62H490V17z M470.01,17h-31.98v11.87h14.82v21.75h12.92V28.87h4.23V17z
		 M411.75,17H394.2V8.28h-12.92v21.19h16.98v3.12c0,1-0.33,1.98-0.99,2.93l-6.05,8.66c-0.78,1.1-1.16,2.22-1.16,3.35v3.09h14.37
		v-2.1c0-1.08,0.31-2.04,0.94-2.9l5.05-6.99c0.89-1.23,1.33-2.78,1.33-4.66V17z M374.72,17h-11.87v21.38c0,0.95-0.46,1.42-1.39,1.42
		h-2.84V17h-10.99v22.8h-4.26V17h-11.84v33.62h33.31c3.58,0,6.13-0.8,7.67-2.41c1.48-1.53,2.21-4.04,2.21-7.53V17z M324.34,24.56
		c0-5.04-2.52-7.55-7.55-7.55h-20.13v11.87h11.87c1.55,0,2.33,0.78,2.33,2.33v5.22c0,1.55-0.78,2.33-2.33,2.33h-11.87v11.87h20.13
		c5.04,0,7.55-2.52,7.55-7.55V24.56z M289.67,17h-12.84v33.62h12.84V17z M269.51,25.15c0-5.43-2.73-8.15-8.18-8.15H236.2v20.13
		c0,0.81-0.37,1.22-1.11,1.22h-3.55v12.27h10.76c2.33,0,4.01-0.5,5.06-1.49c1.04-0.99,1.56-2.64,1.56-4.96V28.87h5.65
		c1.32,0,1.99,0.58,1.99,1.73v20.02h12.95V25.15z M186.4,32.88h-12.89v17.75h12.89V32.88z M205.25,25.15c0-5.43-2.72-8.15-8.15-8.15
		h-23.6v11.87h16.67c1.44,0,2.16,0.85,2.16,2.56v19.2h12.92V25.15z M166.35,24.95c0-5.3-2.53-7.95-7.6-7.95h-4.37
		c-2.33,0-4.15,0.47-5.46,1.4c-1.32,0.94-2.32,2.49-3.02,4.64l-1.79,5.65c-0.61,0-0.91-0.24-0.91-0.71v-0.31v-0.37V17h-13.03V29.7
		c0,2.97,1.31,4.46,3.92,4.46h0.62l-5.05,16.47h13.66l5.65-19.65c0.28-1,0.86-1.51,1.73-1.51h1.16c1.02,0,1.53,0.48,1.53,1.45v8.01
		h-5.2v11.7h18.15V24.95z M107.29,39.1h-5.76V28.53h8.72v7.72C110.24,38.15,109.26,39.1,107.29,39.1 M123.22,17H88.63v33.57h22.43
		c8.1,0,12.15-4.18,12.15-12.55V17z M81.45,17H47.97v33.62h12.89V28.87h7.7v21.75h12.89V17z M40.84,25.15
		c0-5.43-2.72-8.15-8.15-8.15H13.15v11.87h12.32c1.25,0,1.87,0.62,1.87,1.87v19.88h13.49V25.15z"/>
</g>
</svg>
